0
SECTION
2
HEADER
9
$INSUNITS
70
4
9
$ACADVER
1
AC1014
9
$HANDSEED
5
FFFF
0
ENDSEC
0
SECTION
2
TABLES
0
TABLE
2
VPORT
5
8
100
AcDbSymbolTable
0
ENDTAB
0
TABLE
2
LTYPE
5
5
100
AcDbSymbolTable
0
LTYPE
5
14
100
AcDbSymbolTableRecord
100
AcDbLinetypeTableRecord
2
BYBLOCK
70
0
0
LTYPE
5
15
100
AcDbSymbolTableRecord
100
AcDbLinetypeTableRecord
2
BYLAYER
70
0
0
ENDTAB
0
TABLE
2
LAYER
5
2
100
AcDbSymbolTable
70
2
0
LAYER
5
50
100
AcDbSymbolTableRecord
100
AcDbLayerTableRecord
2
0
70
0
6
CONTINUOUS
0
ENDTAB
0
TABLE
2
STYLE
5
3
100
AcDbSymbolTable
70
1
0
STYLE
5
11
100
AcDbSymbolTableRecord
100
AcDbTextStyleTableRecord
2
STANDARD
70
0
0
ENDTAB
0
TABLE
2
VIEW
5
6
100
AcDbSymbolTable
70
0
0
ENDTAB
0
TABLE
2
UCS
5
7
100
AcDbSymbolTable
70
0
0
ENDTAB
0
TABLE
2
APPID
5
9
100
AcDbSymbolTable
70
2
0
APPID
5
12
100
AcDbSymbolTableRecord
100
AcDbRegAppTableRecord
2
ACAD
70
0
0
ENDTAB
0
TABLE
2
DIMSTYLE
5
A
100
AcDbSymbolTable
70
1
0
ENDTAB
0
TABLE
2
BLOCK_RECORD
5
1
100
AcDbSymbolTable
70
1
0
BLOCK_RECORD
5
1F
100
AcDbSymbolTableRecord
100
AcDbBlockTableRecord
2
*MODEL_SPACE
0
BLOCK_RECORD
5
1B
100
AcDbSymbolTableRecord
100
AcDbBlockTableRecord
2
*PAPER_SPACE
0
ENDTAB
0
ENDSEC
0
SECTION
2
BLOCKS
0
BLOCK
5
20
100
AcDbEntity
100
AcDbBlockBegin
2
*MODEL_SPACE
0
ENDBLK
5
21
100
AcDbEntity
100
AcDbBlockEnd
0
BLOCK
5
1C
100
AcDbEntity
100
AcDbBlockBegin
2
*PAPER_SPACE
0
ENDBLK
5
1D
100
AcDbEntity
100
AcDbBlockEnd
0
ENDSEC
0
SECTION
2
ENTITIES
0
LINE
5
100
100
AcDbEntity
8
0
100
AcDbLine
10
-94.999999999999929
20
-23.000000000000004
30
0
11
-86.999999999999957
21
-23.000000000000004
31
0
0
LINE
5
101
100
AcDbEntity
8
0
100
AcDbLine
10
-86.999999999999972
20
-12.999999999999982
30
0
11
-95
21
-13
31
0
0
LINE
5
102
100
AcDbEntity
8
0
100
AcDbLine
10
-95.999999999999972
20
-17.999999999999979
30
0
11
-36.499999999999972
21
-18.000000000000025
31
0
0
LINE
5
103
100
AcDbEntity
8
0
100
AcDbLine
10
-96
20
-14.000000000000004
30
0
11
-95.999999999999972
21
-21.999999999999954
31
0
0
LINE
5
104
100
AcDbEntity
8
0
100
AcDbLine
10
-90.999999999999943
20
-23.000000000000004
30
0
11
-90.999999999999972
21
21.000000000000011
31
0
0
LINE
5
105
100
AcDbEntity
8
0
100
AcDbLine
10
-86.999999999999972
20
21.000000000000018
30
0
11
-95
21
21
31
0
0
LWPOLYLINE
5
106
100
AcDbEntity
8
0
100
AcDbPolyline
90
3
70
1
43
0.0
10
-114.00000000000006
20
-10.999999999999908
10
-114.00000000000006
20
9.0000000000000888
10
-114.00000000000006
20
-1.000000000000022
0
LINE
5
107
100
AcDbEntity
8
0
100
AcDbLine
10
-118.00000000000013
20
-10.999999999999908
30
0
11
-110
21
-10.999999999999908
31
0
0
LINE
5
108
100
AcDbEntity
8
0
100
AcDbLine
10
-110.00000000000013
20
9.0000000000000906
30
0
11
-117.99999999999999
21
9.0000000000000906
31
0
0
LINE
5
109
100
AcDbEntity
8
0
100
AcDbLine
10
-119.00000177323818
20
-1.000000000000022
30
0
11
-36.499999999999972
21
-1.000000000000022
31
0
0
LINE
5
110
100
AcDbEntity
8
0
100
AcDbLine
10
-36.499999999999986
20
-5.0000000000000266
30
0
11
-36.499999999999943
21
2.9999999999999827
31
0
0
LINE
5
111
100
AcDbEntity
8
0
100
AcDbLine
10
-95.999999999999972
20
16.000000000000025
30
0
11
-3.4999999999999809
21
15.99999999999998
31
0
0
LINE
5
112
100
AcDbEntity
8
0
100
AcDbLine
10
-3.5000000000000031
20
12.000000000000009
30
0
11
-3.4999999999999587
21
19.999999999999954
31
0
0
LINE
5
113
100
AcDbEntity
8
0
100
AcDbLine
10
-96
20
20
30
0
11
-95.999999999999972
21
12.00000000000005
31
0
0
LINE
5
114
100
AcDbEntity
8
0
100
AcDbLine
10
-36.499999999999972
20
-18.000000000000025
30
0
11
4.5000000000000435
21
-18
31
0
0
LINE
5
115
100
AcDbEntity
8
0
100
AcDbLine
10
4.5000000000000435
20
-22.000000000000011
30
0
11
4.5000000000000435
21
-13.999999999999989
31
0
0
LINE
5
116
100
AcDbEntity
8
0
100
AcDbLine
10
-36.499999999999986
20
-22.000000000000028
30
0
11
-36.499999999999943
21
-14.00000000000002
31
0
0
LINE
5
117
100
AcDbEntity
8
0
100
AcDbLine
10
-36.499999999999972
20
-1.000000000000022
30
0
11
-3.4999999999999822
21
-1.0000000000000753
31
0
0
LINE
5
118
100
AcDbEntity
8
0
100
AcDbLine
10
-3.5
20
-5.0000000000000586
30
0
11
-3.4999999999999645
21
2.9999999999999085
31
0
0
LINE
5
119
100
AcDbEntity
8
0
100
AcDbLine
10
-24.99999999999995
20
-23.000000342726707
30
0
11
-24.99999999999995
21
20.999999999999996
31
0
0
LINE
5
120
100
AcDbEntity
8
0
100
AcDbLine
10
-8.0000001192092896
20
21.000000312924385
30
0
11
-8.0000001192092896
21
-6.0000000894069672
31
0
0
LINE
5
121
100
AcDbEntity
8
0
100
AcDbLine
10
-4.4999999999982885
20
-23.000000000000004
30
0
11
-4.4999999999999494
21
-13.000000000000004
31
0
0
LINE
5
122
100
AcDbEntity
8
0
100
AcDbLine
10
-74.499999999999943
20
-23.000000000000007
30
0
11
-74.499999999999986
21
21.000000000000011
31
0
0
LINE
5
123
100
AcDbEntity
8
0
100
AcDbLine
10
-57.999999999999943
20
-23.000000000000004
30
0
11
-57.999999999999986
21
21.000000000000011
31
0
0
LINE
5
124
100
AcDbEntity
8
0
100
AcDbLine
10
-41.49999999999995
20
-23.000000000000004
30
0
11
-41.499999999999993
21
21.000000000000007
31
0
0
LINE
5
125
100
AcDbEntity
8
0
100
AcDbLine
10
-37.499999999999986
20
21.000000000000018
30
0
11
-45.500000000000007
21
21
31
0
0
LINE
5
126
100
AcDbEntity
8
0
100
AcDbLine
10
-45.499999999999936
20
-23.000000000000004
30
0
11
-37.499999999999964
21
-23.000000000000004
31
0
0
LINE
5
127
100
AcDbEntity
8
0
100
AcDbLine
10
-61.999999999999929
20
-23.000000000000004
30
0
11
-53.999999999999957
21
-23.000000000000004
31
0
0
LINE
5
128
100
AcDbEntity
8
0
100
AcDbLine
10
-78.499999999999929
20
-23.000000000000004
30
0
11
-70.499999999999957
21
-23.000000000000004
31
0
0
LINE
5
129
100
AcDbEntity
8
0
100
AcDbLine
10
-70.499999999999972
20
21.000000000000018
30
0
11
-78.5
21
21
31
0
0
LINE
5
130
100
AcDbEntity
8
0
100
AcDbLine
10
-53.999999999999979
20
21.000000000000018
30
0
11
-62
21
21
31
0
0
LINE
5
131
100
AcDbEntity
8
0
100
AcDbLine
10
-12.499999999996628
20
-23.000000000000004
30
0
11
3.500000000000052
21
-23.000000000000004
31
0
0
LINE
5
132
100
AcDbEntity
8
0
100
AcDbLine
10
3.500000000000056
20
-13.000000000000004
30
0
11
-12.499999999999954
21
-13.000000000000004
31
0
0
LINE
5
133
100
AcDbEntity
8
0
100
AcDbLine
10
-20.999999999999922
20
20.999999999999982
30
0
11
-28.999999999999982
21
21.000000000000011
31
0
0
LINE
5
134
100
AcDbEntity
8
0
100
AcDbLine
10
-119.00000177323818
20
-5.9999999999999654
30
0
11
-114.00000000000006
21
-5.9999999999999654
31
0
0
LINE
5
135
100
AcDbEntity
8
0
100
AcDbLine
10
-114.00000000000006
20
-5.9999999999999654
30
0
11
-109.00000162422657
21
-5.9999999999999654
31
0
0
LINE
5
136
100
AcDbEntity
8
0
100
AcDbLine
10
-119.01131624495619
20
4.0000000000000329
30
0
11
-108.98868375504392
21
4.0000000000000355
31
0
0
LINE
5
137
100
AcDbEntity
8
0
100
AcDbLine
10
-119.00000177323818
20
-1.000000000000022
30
0
11
-122.49999726191163
21
-1.000000000000022
31
0
0
LWPOLYLINE
5
138
100
AcDbEntity
8
0
100
AcDbPolyline
90
2
70
1
43
0.0
10
-117.50000175088644
20
21.000000312924385
10
-117.50000175088644
20
26.000000387430191
0
LINE
5
139
100
AcDbEntity
8
0
100
AcDbLine
10
-122.50000182539225
20
21.000000312924385
30
0
11
-117.50000175088644
21
21.000000312924385
31
0
0
LINE
5
140
100
AcDbEntity
8
0
100
AcDbLine
10
-117.50000175088644
20
-21.000000312924385
30
0
11
-117.50000175088644
21
-26.000000387430191
31
0
0
LINE
5
141
100
AcDbEntity
8
0
100
AcDbLine
10
-117.50000175088644
20
-21.000000312924385
30
0
11
-122.50000182539225
21
-21.000000312924385
31
0
0
LINE
5
142
100
AcDbEntity
8
0
100
AcDbLine
10
117.50000175088644
20
21.000000312924385
30
0
11
122.50000182539225
21
21.000000312924385
31
0
0
LINE
5
143
100
AcDbEntity
8
0
100
AcDbLine
10
117.50000175088644
20
21.000000312924385
30
0
11
117.50000175088644
21
26.000000387430191
31
0
0
LWPOLYLINE
5
144
100
AcDbEntity
8
0
100
AcDbPolyline
90
2
70
1
43
0.0
10
117.50000175088644
20
-21.000000312924385
10
117.50000175088644
20
-26.000000387430191
0
LINE
5
145
100
AcDbEntity
8
0
100
AcDbLine
10
117.50000175088644
20
-21.000000312924385
30
0
11
122.50000182539225
21
-21.000000312924385
31
0
0
LINE
5
146
100
AcDbEntity
8
0
100
AcDbLine
10
10.000000000000044
20
0.49993025519322998
30
0
11
20.000000149011655
21
0.49993025519322998
31
0
0
LINE
5
147
100
AcDbEntity
8
0
100
AcDbLine
10
15.00000000000006
20
-4.5000697448067832
30
0
11
15.00000000000005
21
22.499930255193206
31
0
0
LINE
5
148
100
AcDbEntity
8
0
100
AcDbLine
10
20.000000149011655
20
0.49993025519322998
30
0
11
53.40000000000007
21
0.49993025519319279
31
0
0
LINE
5
149
100
AcDbEntity
8
0
100
AcDbLine
10
10.000000000000044
20
17.499930255193231
30
0
11
53.40000000000007
21
17.499930255193195
31
0
0
LINE
5
150
100
AcDbEntity
8
0
100
AcDbLine
10
53.400000000000048
20
13.49993025519322
30
0
11
53.400000000000098
21
21.499930255193171
31
0
0
LINE
5
151
100
AcDbEntity
8
0
100
AcDbLine
10
10.000000000000037
20
21.499930255193227
30
0
11
10.000000000000053
21
13.499930255193235
31
0
0
LINE
5
152
100
AcDbEntity
8
0
100
AcDbLine
10
10.000000000000037
20
4.4999302551932256
30
0
11
10.000000000000053
21
-3.5000697448067659
31
0
0
LINE
5
153
100
AcDbEntity
8
0
100
AcDbLine
10
53.400000000000048
20
-3.5000697448067832
30
0
11
53.400000000000098
21
4.4999302551931688
31
0
0
LINE
5
154
100
AcDbEntity
8
0
100
AcDbLine
10
11.000000000000068
20
-4.5000697448067832
30
0
11
19.000000000000053
21
-4.5000697448067832
31
0
0
LINE
5
155
100
AcDbEntity
8
0
100
AcDbLine
10
19.000000000000068
20
22.499930255193199
30
0
11
11.000000000000028
21
22.49993025519322
31
0
0
LINE
5
156
100
AcDbEntity
8
0
100
AcDbLine
10
31.700000000000045
20
-4.4999998994171619
30
0
11
31.700000000000045
21
22.499930255193206
31
0
0
LINE
5
157
100
AcDbEntity
8
0
100
AcDbLine
10
35.700000000000067
20
22.499930255193199
30
0
11
27.700000000000028
21
22.49993025519322
31
0
0
LINE
5
158
100
AcDbEntity
8
0
100
AcDbLine
10
48.400000000000048
20
22.499930255193206
30
0
11
48.400000000000048
21
-4.5000697448067832
31
0
0
LINE
5
159
100
AcDbEntity
8
0
100
AcDbLine
10
44.400000000000063
20
-4.5000697448067832
30
0
11
52.400000000000048
21
-4.5000697448067832
31
0
0
LINE
5
160
100
AcDbEntity
8
0
100
AcDbLine
10
52.400000000000063
20
22.499930255193199
30
0
11
44.400000000000034
21
22.49993025519322
31
0
0
LWPOLYLINE
5
161
100
AcDbEntity
8
0
100
AcDbPolyline
90
3
70
1
43
0.0
10
68.6743455667376
20
14.000000000000025
10
88.6743455667376
20
14.000000000000126
10
78.6743455667376
20
14.000000000000025
0
LINE
5
162
100
AcDbEntity
8
0
100
AcDbLine
10
78.674337905962446
20
20.497189333303119
30
0
11
78.674337905962446
21
10.499999765306711
31
0
0
LINE
5
163
100
AcDbEntity
8
0
100
AcDbLine
10
66.424345566737955
20
-21.000000000000021
30
0
11
66.424345566737955
21
-1.0000000000000089
31
0
0
LINE
5
164
100
AcDbEntity
8
0
100
AcDbLine
10
61.424345566738012
20
-11.000000000000021
30
0
11
66.424345566737955
21
-10.999999999999998
31
0
0
LINE
5
165
100
AcDbEntity
8
0
100
AcDbLine
10
66.424345566737955
20
-10.999999999999998
30
0
11
95.924345566738012
21
-10.999999999999964
31
0
0
LINE
5
166
100
AcDbEntity
8
0
100
AcDbLine
10
90.924345566738012
20
-20.999999999999979
30
0
11
90.924345566737955
21
-1.0000000000000446
31
0
0
LINE
5
167
100
AcDbEntity
8
0
100
AcDbLine
10
61.424345566738012
20
-2.0000000000000111
30
0
11
61.424345566738012
21
-20.000000000000032
31
0
0
LINE
5
168
100
AcDbEntity
8
0
100
AcDbLine
10
95.924345566738054
20
-19.999999999999968
30
0
11
95.924345566737955
21
-1.9999999999999596
31
0
0
LINE
5
169
100
AcDbEntity
8
0
100
AcDbLine
10
86.924345566738012
20
-20.999999999999979
30
0
11
94.924345566738026
21
-20.999999999999982
31
0
0
LINE
5
170
100
AcDbEntity
8
0
100
AcDbLine
10
94.924345566737912
20
-1.000000000000091
30
0
11
86.924345566738012
21
-0.99999999999999822
31
0
0
LINE
5
171
100
AcDbEntity
8
0
100
AcDbLine
10
70.424345566737955
20
-1.0000000000000089
30
0
11
62.424345566737962
21
-1.0000000000000089
31
0
0
LINE
5
172
100
AcDbEntity
8
0
100
AcDbLine
10
62.424345566737991
20
-21.000000000000032
30
0
11
70.424345566737927
21
-21.000000000000014
31
0
0
LINE
5
173
100
AcDbEntity
8
0
100
AcDbLine
10
61.424345566738012
20
-15.999999999999886
30
0
11
95.924345566738012
21
-15.99999999999989
31
0
0
LINE
5
174
100
AcDbEntity
8
0
100
AcDbLine
10
61.424345566738012
20
-5.9999999999998455
30
0
11
95.924345566737955
21
-5.9999999999998543
31
0
0
LINE
5
175
100
AcDbEntity
8
0
100
AcDbLine
10
112.5
20
-11.000000000000036
30
0
11
112.50000000000001
21
8.9999999999999876
31
0
0
LINE
5
176
100
AcDbEntity
8
0
100
AcDbLine
10
107.50000000000001
20
-1.0000000000000731
30
0
11
117.50000000000001
21
-1.0000000000000187
31
0
0
LINE
5
177
100
AcDbEntity
8
0
100
AcDbLine
10
107.50000000000001
20
7.9999999999999138
30
0
11
107.50000000000001
21
-10.00000000000006
31
0
0
LINE
5
178
100
AcDbEntity
8
0
100
AcDbLine
10
117.50000000000001
20
-10.000000000000124
30
0
11
117.50000000000001
21
8.000000000000087
31
0
0
LINE
5
179
100
AcDbEntity
8
0
100
AcDbLine
10
108.49999999999997
20
-11.000000000000048
30
0
11
116.50000000000003
21
-11.000000000000025
31
0
0
LINE
5
180
100
AcDbEntity
8
0
100
AcDbLine
10
116.50000000000003
20
9.0000000000000107
30
0
11
108.50000000000001
21
8.9999999999999662
31
0
0
LINE
5
181
100
AcDbEntity
8
0
100
AcDbLine
10
107.50000000000001
20
-6.0000000000000497
30
0
11
117.50000000000001
21
-6.0000000000000444
31
0
0
LINE
5
182
100
AcDbEntity
8
0
100
AcDbLine
10
107.50000000000001
20
3.9999999999999618
30
0
11
117.50000000000001
21
3.9999999999999636
31
0
0
LINE
5
183
100
AcDbEntity
8
0
100
AcDbLine
10
78.674345566738012
20
-10.999999999999799
30
0
11
78.674345566738012
21
-20.999999999999975
31
0
0
LINE
5
184
100
AcDbEntity
8
0
100
AcDbLine
10
78.674345566737983
20
-0.99999999999990263
30
0
11
78.674345566737983
21
-10.999999999999799
31
0
0
LINE
5
185
100
AcDbEntity
8
0
100
AcDbLine
10
112.50000000000001
20
-1.0000000000000611
30
0
11
112.50000000000001
21
-11.000000000000036
31
0
0
LINE
5
186
100
AcDbEntity
8
0
100
AcDbLine
10
112.50000000000006
20
8.9999999999999876
30
0
11
112.50000000000001
21
-1.0000000000000611
31
0
0
LINE
5
187
100
AcDbEntity
8
0
100
AcDbLine
10
73.6743455667376
20
19.000000074505834
30
0
11
73.6743455667376
21
8.9999999254942189
31
0
0
LINE
5
188
100
AcDbEntity
8
0
100
AcDbLine
10
83.674345566737571
20
8.9999999254942971
30
0
11
83.674345566737571
21
19.000000074505909
31
0
0
LINE
5
189
100
AcDbEntity
8
0
100
AcDbLine
10
68.6743455667376
20
18.000000000000281
30
0
11
68.6743455667376
21
9.9999999999997726
31
0
0
LINE
5
190
100
AcDbEntity
8
0
100
AcDbLine
10
88.674345566737586
20
9.9999999999998899
30
0
11
88.674345566737514
21
18.000000000000277
31
0
0
LINE
5
191
100
AcDbEntity
8
0
100
AcDbLine
10
19.700000000000149
20
-15.4
30
0
11
43.700000000000152
21
-15.4
31
0
0
LINE
5
192
100
AcDbEntity
8
0
100
AcDbLine
10
31.700000000000145
20
-24.300000000000001
30
0
11
31.700000000000152
21
-6.5000000000000018
31
0
0
LWPOLYLINE
5
193
100
AcDbEntity
8
0
100
AcDbPolyline
90
4
70
1
43
0.0
10
19.700000000000152
20
-6.5000000000000018
10
43.700000000000152
20
-6.5000000000000018
10
43.700000000000145
20
-24.300000000000001
10
19.700000000000149
20
-24.300000000000001
0
LINE
5
194
100
AcDbEntity
8
0
100
AcDbLine
10
-122.5
20
-26
30
0
11
122.5
21
-26
31
0
0
LINE
5
195
100
AcDbEntity
8
0
100
AcDbLine
10
122.5
20
26
30
0
11
-122.5
21
26
31
0
0
LWPOLYLINE
5
196
100
AcDbEntity
8
0
100
AcDbPolyline
90
4
70
1
43
0.0
10
-120.50000181049113
20
-24.000000395134418
10
120.49999818950893
20
-24.000000422872738
10
120.49999818950893
20
23.999999577127269
10
-120.50000181049109
20
23.999999577127269
0
LINE
5
197
100
AcDbEntity
8
0
100
AcDbLine
10
-120.50000181049113
20
-24.000000395134418
30
0
11
-120.50000181049113
21
-25.000000395134418
31
0
0
LINE
5
198
100
AcDbEntity
8
0
100
AcDbLine
10
-121.5000018104911
20
-24.000000605986095
30
0
11
-120.50000181049113
21
-24.000000395134418
31
0
0
LINE
5
199
100
AcDbEntity
8
0
100
AcDbLine
10
3.2500001543667167
20
7.5000003562308848
30
0
11
3.2500001543667167
21
5.5000000819563866
31
0
0
LINE
5
200
100
AcDbEntity
8
0
100
AcDbLine
10
3.2500001543667167
20
7.5000003562308848
30
0
11
1.2500000593718141
21
7.5000003562308848
31
0
0
ENDSEC
0
SECTION
2
OBJECTS
0
DICTIONARY
5
C
100
AcDbDictionary
3
ACAD_GROUP
350
D
3
ACAD_MLINESTYLE
350
17
0
DICTIONARY
5
D
100
AcDbDictionary
0
DICTIONARY
5
1A
330
C
100
AcDbDictionary
0
DICTIONARY
5
17
100
AcDbDictionary
0
ENDSEC
0
EOF
